# xmcd
#
# Track frame offsets:
#	150
#	10436
#	21068
#	32277
#	42751
#	53159
#	62926
#	73836
#	85455
#	96672
#	108791
#	118864
#	130501
#	142395
#	154677
#	166182
#	177667
#	188860
#	199279
#	208915
#
# Disc length: 2953 seconds
#
# Revision: 0
# Processed by: cddbd v1.5.2PL0 Copyright (c) Steve Scherf et al.
# Submitted via: EasyCDDAExtractor 16.0.1.1
#
DISCID=290b8714
DTITLE=Tita Merello - Tango Collection (20 Grandes Éxitos)
DYEAR=2013
DGENRE=Tango
TTITLE0=Qué careta
TTITLE1=Mi papito
TTITLE2=Tata... llevame pal centro
TTITLE3=Che bacana
TTITLE4=No es por hablar mal
TTITLE5=La viuda misteriosa
TTITLE6=Quién te ve
TTITLE7=Che... pepinito
TTITLE8=Mama mía... Que mujer
TTITLE9=Paquetín... paquetón
TTITLE10=Trabajar... nunca
TTITLE11=No te hagas curar
TTITLE12=Mascarón de proa
TTITLE13=Los cardales
TTITLE14=Qué torcido andás Julián
TTITLE15=Te has comprado un automóvil
TTITLE16=Ña.. to.. ri.. bia..
TTITLE17=Torta frita
TTITLE18=No te aguanto más
TTITLE19=Sos una fiera
EXTD=
EXTT0=
EXTT1=
EXTT2=
EXTT3=
EXTT4=
EXTT5=
EXTT6=
EXTT7=
EXTT8=
EXTT9=
EXTT10=
EXTT11=
EXTT12=
EXTT13=
EXTT14=
EXTT15=
EXTT16=
EXTT17=
EXTT18=
EXTT19=
PLAYORDER=
